<svg xmlns="http://www.w3.org/2000/svg" viewBox="0 0 285 285"><path d="M56.2,51c-8.5,1.7 -11.2,4.3 -11.2,10.6 0,3.7 -0.4,5.1 -1.9,5.8 -1,0.6 -2.1,0.8 -2.3,0.6 -1.2,-1.3 -9.7,3 -13.5,6.7 -5.4,5.3 -6.9,10 -8.2,25.5 -1.4,15.4 -1.4,73.4 -0.1,93.5 1.4,20.6 2.1,23 8.9,29.8 8.4,8.3 10.9,8.8 55.1,10.6 37.4,1.6 112.6,1.3 145,-0.5 30.1,-1.7 35.3,-6.9 37.1,-37.6 1.1,-19.4 1.1,-76 0,-94 -1.1,-17.2 -3.1,-23.4 -9.6,-29.4 -2.5,-2.3 -4.9,-4.2 -5.5,-4.2 -1.4,-0.2 -1.7,-0.3 -8,-1.9 -4.6,-1.3 -17.3,-1.5 -75.7,-1.5l-70.3,0.1 0,-3.7c0,-5.8 -3.2,-8.8 -11,-10.4 -7.9,-1.7 -20.2,-1.7 -28.8,-0zM86.4,57.4l3,1.2 -2.2,2.2c-2.1,2 -3.4,2.2 -15.7,2.5 -11,0.3 -14,0.1 -17,-1.3 -2.8,-1.4 -3.3,-2 -2.4,-3.1 0.6,-0.8 2.6,-1.8 4.3,-2.3 4.3,-1.3 26.5,-0.7 30,0.8zM90,68c0,2.5 -2.9,4.5 -6.6,4.5 -2.7,-0 -1.6,-4.5 1.4,-5.7 4.3,-1.7 5.2,-1.5 5.2,1.2zM228,72.4c12.8,0.7 15.1,1.1 19.6,3.4 7,3.6 8.5,7.6 10.8,29.4l0.4,4.1 -4.7,1.2c-2.5,0.7 -16.1,1.5 -30.1,2l-25.5,0.8 -5.3,-5.4c-25.8,-26.3 -67.8,-26.9 -94.1,-1.5l-7.6,7.3 -23,-0.6c-21.2,-0.6 -40.9,-2.7 -42.8,-4.5 -1.1,-1.1 1,-17.4 2.9,-23.3 1.8,-5.6 4.8,-8.3 11.7,-10.3 4.3,-1.3 5.4,-1.3 7.1,-0.1 3.2,2 15.7,4.6 22.6,4.6 7.4,-0 19.5,-2.6 23,-4.8 2,-1.3 6,-1.8 18.5,-2.2 25.4,-0.9 100.6,-0.9 116.5,-0.1zM162,96c15.3,4.6 28.5,14.8 35.8,27.7 11.3,19.8 12,41.3 2,61.7 -4.5,9.1 -18,22.6 -26.9,26.8 -18,8.7 -38.7,8.5 -55.9,-0.4 -11.5,-5.9 -20.5,-14.9 -26,-25.7 -2.3,-4.5 -4.2,-8.8 -4.4,-9.6 -0.1,-0.8 -1.1,-5.1 -2.1,-9.4 -4.8,-21 4.9,-46.7 22.9,-60.5 6.4,-5 12.9,-8.2 21.1,-10.6 3.3,-0.9 6.5,-1.8 7,-2 0.6,-0.2 4.9,-0.4 9.6,-0.4 6.4,-0.1 10.6,0.5 16.9,2.4zM36.5,115.6c2.8,0.5 15.6,1.2 28.6,1.5l23.7,0.7 -2.9,4.8c-1.5,2.6 -3.9,8.4 -5.3,12.9 -3.7,11.6 -3.7,28.9 -0.1,41.1 6.6,22 23.7,39.1 45.5,45.5 18.5,5.3 34.6,3.6 52.3,-5.8 7.6,-4 21.7,-17.9 25.2,-24.9 7.7,-15 10.3,-29 8.4,-43.9 -1.2,-9.8 -5.1,-21.7 -8.8,-26.8l-2.1,-3 21.8,-0.7c11.9,-0.4 24.9,-1.2 28.9,-1.9l7.1,-1.2 0.7,15.5c1,21.6 -0.4,59.9 -3,81.5 -0.8,6.4 -6.8,12.9 -13.1,14 -14.5,2.7 -51,4.3 -96.4,4.3 -42.3,-0 -69.1,-1.1 -99.2,-4.2 -9.7,-1 -17.4,-6.3 -19.7,-13.5 -0.6,-2 -1.5,-8 -2.1,-13.5 -1.4,-15.1 -2.4,-61.6 -1.5,-73.7l0.7,-10.8 3.1,0.6c1.8,0.3 5.5,1 8.2,1.5zM203.3,81.6c-4.6,1.3 -5.6,3.9 -5.1,13.2 0.6,9.7 1.8,11.1 10.9,12.1 9,1.1 28.9,-0.3 31.8,-2.1 2.3,-1.5 2.3,-1.9 1.8,-9.9 -0.6,-9.7 -2.1,-12.8 -6.8,-13.8 -4.7,-0.9 -28.9,-0.6 -32.6,0.5zM231.1,90.6c0.5,1.1 0.9,3.4 0.7,5.2l-0.3,3.2 -10.5,-0 -10.5,-0 -0.9,-2.7c-0.6,-1.8 -0.6,-3.5 0.2,-5.2 1,-2.3 1.5,-2.4 10.7,-2.4 8.4,-0 9.6,0.2 10.6,1.9zM34.5,89.9c-0.9,2 -1.7,6.7 -1.8,10.4 -0.2,5.4 0.1,6.7 1.4,7 1.4,0.3 1.8,-1.2 2.4,-9.8 0.4,-5.6 0.5,-10.4 0.1,-10.7 -0.3,-0.3 -1.3,1.1 -2.1,3.1zM138,103.9c-0.3,0.3 -2.5,0.8 -4.9,1.1 -12,1.5 -28,13.9 -34.5,26.7 -3.9,7.8 -4.2,8.7 -5.7,18.9 -0.9,6.1 -0.5,11.4 1.5,20.5 1.3,6.2 8,17.7 13.6,23.2 4.1,4.1 11.8,9.1 19,12.2 4.7,2 7.2,2.4 17.5,2.4 10.5,0.1 12.7,-0.2 18,-2.4 9.9,-4 14.1,-6.8 20.4,-13.5 8.7,-9.4 13.2,-19.4 14.6,-33 0.6,-5.4 0,-9.7 -2.9,-21.7 -0.3,-0.9 -1.9,-4.4 -3.8,-7.8 -5.9,-11.1 -21.4,-23.3 -32.3,-25.6 -4.4,-0.9 -19.9,-1.7 -20.5,-1zM165.2,112.8c4,2 9.2,5.2 11.5,7.1 8.8,7.6 16.3,24.1 16.3,36 0,6 -2.5,16.6 -5.2,22.1 -3.3,6.6 -9.2,13.8 -13.9,17 -2.4,1.7 -4.6,3.2 -4.9,3.5 -0.3,0.3 -3,1.7 -6,3 -8.1,3.4 -24.3,4 -32,1.1 -3,-1.1 -5.7,-2 -6,-1.9 -1.3,0.5 -10.3,-6.8 -15.4,-12.4 -10.1,-11.1 -14.2,-24.8 -11.7,-39.5 2.8,-16.4 11.9,-28.4 27.3,-36 7.1,-3.5 11.5,-4.2 23,-3.8 8.7,0.3 10.5,0.7 17,3.8zM136.1,119.1c-12.8,3.4 -21.7,11.2 -26.5,23.1 -2.5,6.3 -2.8,8 -2.5,15.9 0.3,7.7 0.9,9.9 3.6,15.5 5.5,11.2 15.4,18.4 28.8,21.1 6.5,1.3 14.6,0.1 22.2,-3.2 6.5,-2.8 13.9,-10.4 17.6,-17.9 3,-6.1 3.2,-7.2 3.2,-17.1 0,-9.3 -0.3,-11.1 -2.7,-16.2 -2.9,-6 -11.5,-15.4 -16.1,-17.6 -11.9,-5.5 -17.8,-6.2 -27.6,-3.6zM142.9,131.4c0.9,0.6 1.6,2.9 1.7,6 0.2,4.1 -0.2,5.7 -2.6,8.9 -4.3,6 -8.5,8.5 -14.2,8.6 -5.9,0.1 -7.8,-1.8 -7.8,-7.6 0,-6 4.2,-12.1 10.5,-15.6 2.4,-1.4 10.4,-1.5 12.4,-0.3zM172.1,166.3c-3.1,10.6 -13.5,19.2 -23.4,19.2 -3.2,-0 -3.3,-0.7 -0.1,-1.3 7,-1.2 20.5,-12.5 22,-18.3 0.3,-1.3 1,-2.4 1.4,-2.4 0.5,-0 0.5,1.3 0.1,2.8zM32.4,118.8c-1.1,3 0.2,84.1 1.5,87.9 1.2,3.9 6,10.2 6.1,8.1 0,-0.6 -0.4,-1.4 -0.9,-1.8 -1.8,-1.1 -2.2,-9 -2.9,-51.9 -0.5,-33 -1,-43 -1.9,-43.4 -0.7,-0.2 -1.6,0.3 -1.9,1.1z" transform="matrix(1 0 0 1 0 0)" fill="#000000" fill-opacity="1"/></svg>