<svg xmlns="http://www.w3.org/2000/svg" viewBox="0 0 271 271"><path d="M125,19.1c-1.4,0.2 -5.9,0.9 -10,1.5 -8.9,1.3 -11.9,2.1 -22.5,6.1 -10.9,4.1 -14.6,6 -25,13.3 -14.2,9.9 -25.6,22.9 -35.3,40.5 -3.8,6.9 -9.8,22.3 -10.6,27.2 -0.3,2.1 -1,5.7 -1.6,8 -0.5,2.4 -1.3,9.3 -1.6,15.3 -1.8,31.1 10.3,63.8 32,85.9 7.1,7.2 22.2,18.4 30.4,22.5 26.7,13.5 62.3,16.4 90.7,7.4 35,-11.1 61.6,-36.4 73.9,-70.6 2,-5.3 3.8,-11 4,-12.5 0.3,-1.5 1.2,-6.7 2.1,-11.6 4,-23.5 -0.5,-50.6 -11.8,-70.6 -18.4,-32.6 -48,-54.7 -80.9,-60.5 -9.3,-1.6 -29,-2.8 -33.8,-1.9zM160.2,35.4c4.7,1.1 10.6,2.9 13,3.9 13.9,6.2 19.4,9.5 29.6,17.4 6.3,5 17.3,17.9 20,23.5 0.9,1.8 1.9,3.3 2.3,3.3 0.3,-0 1.7,2.4 2.9,5.2 1.2,2.9 3.3,7.6 4.6,10.3 6.2,13.3 8.2,38.4 4.5,57 -2.2,11.1 -2.4,11.7 -5.7,19.3 -1.3,2.9 -2.4,5.6 -2.4,6.1 0,0.7 -2.8,5.3 -8.9,14.5 -12.5,19 -38.9,35.8 -63.4,40.5 -19.8,3.8 -44.2,1.9 -59.5,-4.8 -3.7,-1.6 -7.7,-3.2 -8.9,-3.6 -1.3,-0.3 -2.9,-1.2 -3.6,-1.9 -0.7,-0.8 -3.2,-2.3 -5.4,-3.5 -2.3,-1.1 -7.5,-4.8 -11.7,-8.2 -15.9,-12.7 -28.5,-33.8 -33.7,-56 -4.2,-17.9 -2.3,-44.4 4.2,-58.9 1.2,-2.5 2.7,-6.1 3.4,-8 1.9,-5.4 11.5,-19.8 17.5,-26.3 2.9,-3.2 7.8,-7.7 10.9,-10.1 5.9,-4.4 19.2,-12.6 20.5,-12.6 0.4,-0 3.8,-1.3 7.4,-2.9 3.7,-1.6 10.5,-3.6 15.2,-4.5 4.7,-0.8 9.4,-1.8 10.5,-2 4.5,-1.1 28.3,0.4 36.7,2.3zM124.9,63.2c-4.1,2.2 -5.8,3.7 -7.3,6.8 -2.8,5.8 -3.2,12.4 -1.1,16.6 4.2,8.3 8.7,10.9 18.8,10.9 7.5,-0 7.5,-0 12.5,-4.5 6.1,-5.5 8.1,-11.5 6.2,-18.5 -1.7,-6.4 -3.9,-9 -9.5,-11.6 -6.8,-3.2 -12.7,-3.1 -19.6,0.3zM127.9,110.4c-8.6,2 -18.3,6.2 -21.6,9.3 -2.7,2.5 -3.1,7.9 -0.8,9.8 1,0.8 3.3,1.1 6.7,0.8 2.9,-0.3 6.3,-0.1 7.5,0.5 2.9,1.3 3,5.7 0.7,23.7 -0.8,6.9 -1.9,16.9 -2.3,22.2 -0.9,10.9 -2.1,13.2 -7.5,14.3 -5.8,1.2 -6.5,1.6 -7.1,4.4 -1.4,6.6 3.2,10.3 16,12.8 9.1,1.7 19,1.7 29.3,-0.2 13.8,-2.4 20.9,-7.8 18.6,-14.2 -0.9,-2.7 -1.3,-2.8 -7.4,-2.9 -9.4,-0.1 -9.8,-0.2 -12,-2.4 -2.7,-2.7 -2.6,-6.2 0.9,-31 5.1,-36 5.2,-41.6 0.4,-46.4 -2.2,-2.2 -3.4,-2.6 -8.2,-2.5 -3.1,-0 -9,0.9 -13.2,1.8z" transform="matrix(1 0 0 1 0 0)" fill="#000000" fill-opacity="1"/></svg>