<svg xmlns="http://www.w3.org/2000/svg" viewBox="0 0 168 168"><path d="M71.4,9.4a79,79 0,0 0,-60.2 51.9C8.9,67.8 8.6,70 8.6,84c-0.1,12.7 0.2,16.5 1.8,21a78,78 0,0 0,54.1 52.2,87 87,0 0,0 38,0.4 78,78 0,0 0,49.5 -40.1c5.8,-11.9 7.4,-19 7.4,-33A69,69 0,0 0,137 30.9a56,56 0,0 0,-19 -14.2,95 95,0 0,0 -15.5,-6.2 86,86 0,0 0,-31.1 -1.1m18.5,6.7c2,1.1 5.1,4 6.9,6.4A79,79 0,0 1,107 44.1c0,1.4 -1.8,1.8 -11.1,2.4 -6.1,0.4 -16.7,0.4 -23.5,0L60,45.8l0.6,-2.7a82,82 0,0 1,11.6 -22.3c6.1,-6.9 11.4,-8.3 17.7,-4.7m29.8,8.7c3.7,2.2 9,6.3 11.7,9.1l4.9,5 -2.9,1.1a84,84 0,0 1,-19.8 4.2l-2.1,-6.2A59,59 0,0 0,100 16.6c0,-1.2 13.1,4.3 19.7,8.2m-56.1,-2.9c-2.8,4.1 -7.4,13.9 -9.9,21.2 -0.5,1.4 -1.3,1.5 -5.2,0.8 -5.7,-1.1 -11.8,-2.7 -15.4,-4.1l-2.6,-1 5.8,-5.2a78,78 0,0 1,22.4 -14.2c8.2,-3.4 8.8,-3.1 4.9,2.5M45,49.4c5.4,1.1 6.5,1.6 6.3,3.2l-1.2,9.9 -1.7,13.7 -0.5,5.8h-17c-19.5,0 -18,1 -15.4,-11.2a72,72 0,0 1,8.8 -22.5l2.7,-4.2 5.8,2c3.2,1.1 8.7,2.5 12.2,3.3m100.2,2.3a71,71 0,0 1,7.8 26.5L153,82h-33.5l-1.7,-14.4 -2,-15.6q-0.1,-1.2 6.2,-2.6c3.6,-0.8 9,-2.2 12,-3.3a25,25 0,0 1,6.5 -1.7c0.5,0.1 2.6,3.4 4.7,7.3m-53.5,0.9c19.5,-0.6 17.4,-1.6 19.2,8.8 0.6,3.3 1.1,9.3 1.1,13.3L112,82l-28.7,-0.2 -28.7,-0.3 0.3,-7c0.2,-6.6 2.4,-20.6 3.5,-22.3 0.3,-0.5 4,-0.4 8.3,0.1s15.5,0.6 25,0.3M48.5,93.7c1.1,11 2.6,21.1 3.5,24.2 0.8,2.8 0.6,3.1 -1.8,3.7l-11.7,3.1 -9,2.5 -2.6,-3.2A79,79 0,0 1,14 90.3L14,88h33.9zM112.1,88.5c0.7,0.7 -0.9,17.1 -2.3,24.4l-1.3,6.4 -24.8,0.1 -24.8,0.1 -0.9,-3.5c-1.6,-6.1 -3,-16.3 -3,-22.3L55,88h28.3c15.6,0 28.6,0.2 28.8,0.5m40.9,2.7c0,8.3 -5.7,24 -11.9,32.5 -3,4.2 -3.1,4.2 -6.3,2.9 -2.9,-1.3 -9.7,-3.1 -18,-5 -2.5,-0.6 -2.6,-0.8 -1.7,-3.9 0.8,-2.9 3.9,-25.2 3.9,-28.4 0,-1 3.9,-1.3 17,-1.3h17zM100.8,125.7c6,0.7 6,0.5 1.2,11 -3.4,7.5 -11,15.9 -15.1,16.8q-12,2.6 -21.8,-17.8a99,99 0,0 1,-4.1 -9.1c0,-1.3 30.4,-2.1 39.8,-0.9M56.9,133c1.2,3.3 4.1,8.9 6.5,12.4l4.2,6.3 -3.4,-0.9a80,80 0,0 1,-28 -16l-2.3,-2.5 5.3,-1.6a105,105 0,0 1,14.4 -3.6c0.6,-0.1 2.1,2.6 3.3,5.9m69.5,-2.8 l8,2.1 -4,3.5a84,84 0,0 1,-28.2 15.7c-2.2,0.6 -2.1,0.4 1.2,-4.5 1.9,-2.8 4.8,-8.5 6.3,-12.6 3.2,-8.5 1.7,-8.1 16.7,-4.2" transform="matrix(1 0 0 1 0 0)" fill="#000000" fill-opacity="1"/></svg>