<svg xmlns="http://www.w3.org/2000/svg" viewBox="0 0 229 171"><path d="M62.5,9c-1.1,0.5 -4.3,0.6 -7.1,0.3s-6.7,0 -8.7,0.6c-4,1.4 -10.7,8.2 -10.7,10.9 0,1 -1.5,3.2 -3.3,4.9 -3.2,3 -5.7,8.8 -5.7,13.1 0,1.1 0.9,5 2.1,8.7 1.7,5.6 3.1,7.8 8,12.9 6,6 6,6.1 5,9.8 -1,3.1 -2,4 -7.4,6.6 -15.4,7.2 -21,18.4 -23.7,46.6 -2.1,22.2 0.3,33.6 7.7,37.1 5.2,2.5 18.3,1.6 28.8,-1.9a50,50 0,0 0,9.5 -4c0.8,-0.8 4.7,-1.6 8.5,-2 3.9,-0.3 8.2,-0.9 9.7,-1.2 2.7,-0.6 2.7,-0.5 3,5.2 0.2,3.5 0.7,5.7 1.3,5.4s0.9,-3.1 0.8,-6.2c-0.3,-5.5 -0.1,-5.8 2.8,-7.3 4.8,-2.5 8,-11.5 6,-16.8 -0.9,-2.4 -1.6,-2.7 -5.4,-2.7h-4.4l-0.7,-8.6a87,87 0,0 0,-5.7 -26.6,36 36,0 0,0 -6,-7.7c-3.4,-3.3 -3.9,-4.2 -3,-5.9 0.9,-1.6 1.8,-1.8 6,-1.4 6.4,0.6 10.5,-1.1 13.1,-5.3s2.5,-5.1 -0.2,-6c-2.2,-0.7 -2.2,-0.8 0.5,-1.2q2.8,-0.4 3.9,-3.3c0.5,-1.6 2,-3.6 3.4,-4.5 2.9,-1.9 3,-4 0.4,-8 -1.2,-1.9 -2,-4.7 -2,-7.5 0,-2.5 -0.5,-6.2 -1.1,-8.3 -0.8,-3 -0.7,-4.2 0.6,-5.9 2.5,-3.6 2,-9.3 -1.1,-11.7A10,10 0,0 0,83 15c-1,0 -2.4,-0.7 -3.1,-1.7C76.5,9.3 67.3,7 62.5,9m22,22.1a34,34 0,0 1,2.2 10.2c0.3,4.5 1.3,8.4 2.5,10.5 1.6,2.6 1.8,3.5 0.8,4.7q-1.2,1.4 -2.5,1.5c-0.7,0 -1.5,1.4 -1.9,3.1 -0.6,3.1 -0.6,3.1 -5.7,2.4l-5.1,-0.7 0.4,2.8c0.2,2.2 1,3.1 3.3,3.8l3.3,1.2c0.1,0 0,0.9 -0.4,1.8 -1.5,4 -9.8,5.8 -16.3,3.5 -1.8,-0.6 -3.5,-0.8 -3.9,-0.4q-0.5,0.8 0.5,1.2c1,0.4 1,1 0.1,2.6 -0.6,1.2 -1.1,3.4 -1,4.9 0.1,2.2 -0.4,2.8 -2.1,2.8 -3.1,-0.1 -9.6,-3.2 -13.5,-6.7l-3.4,-2.8 1.9,-5.5c1.9,-5.6 6.2,-11 8.8,-11q1.4,-0.1 2,-1 0.4,-1 -1,-1c-2.9,0 -6.5,-5 -6.5,-9.1 0,-3 0.6,-4.2 2.6,-5.5 2.4,-1.6 2.6,-1.6 5.4,0.5 1.6,1.1 3.4,2.1 3.9,2.1 1.7,0 5.1,-7.7 5.1,-11.5 0,-3.3 0.2,-3.5 3.3,-3.5a36,36 0,0 0,8.2 -1.9c6.9,-2.5 7.2,-2.5 9,1M41.1,79.4c5.3,6.7 17.2,11.4 20.8,8.2 1.7,-1.5 2,-1.4 4.6,1.1 5.9,5.9 9.4,17.8 9.8,33.8 0.2,7.6 0.1,8 -2,8.3 -2.2,0.3 -2.2,0 -2.5,-10 -0.2,-5.7 -0.7,-10.1 -1.2,-9.8a39,39 0,0 0,-0.7 10.6c0.2,10.1 0.2,10.1 -2.3,10.6s-2.6,0.3 -2.6,-4.2c0,-5.5 -2,-8.1 -4.5,-6 -0.8,0.7 -2.8,3.6 -4.5,6.5l-3,5.2 -7.7,1.1c-4.3,0.6 -7.9,0.9 -8.1,0.7s0.3,-6.1 1.1,-13.2 1.3,-13 1,-13.3c-1.1,-1.2 -2.1,3.2 -3.3,14.3a48,48 0,0 1,-2.4 12.9c-0.6,0.4 -2.1,0.8 -3.3,0.8q-2.1,0 -2.3,1c0,1.2 0.9,1.2 8.5,0.1l10.1,-1.5 4.1,-0.6 0.5,4.8c0.3,2.6 1.3,6.4 2.3,8.5 2.2,4.6 2.2,4.6 -8,7.9a47,47 0,0 1,-16.2 2.3c-8.3,0 -9.4,-0.2 -11.7,-2.4 -4.3,-4 -4.9,-7.8 -4.4,-26.5 0.8,-25 3.8,-36.3 12.2,-44.9A39,39 0,0 1,38.9 77c0.2,0 1.2,1.1 2.2,2.4m21.8,49.3c-0.3,4.6 -0.2,4.8 2.6,5.1 1.6,0.2 6.6,-0.4 11.2,-1.4 11.5,-2.4 12.8,-0.6 2.3,3.3a26,26 0,0 0,-5.5 2.6c-1.5,1.4 5.2,-0.2 10.3,-2.3 2.3,-1.1 4.2,-1.5 4.2,-1 0,1.4 -4,3.8 -9.5,5.7q-5.4,1.8 -2.8,2.1a17,17 0,0 0,6.8 -1.7c2.5,-1.1 4.5,-1.6 4.5,-1.2 0,0.7 -6.1,3.7 -11.5,5.7 -1.8,0.6 -1.8,0.7 -0.2,1.1 1,0.3 3.6,-0.4 5.7,-1.5 4,-1.9 5.3,-1.5 2.5,0.8a45,45 0,0 1,-18.5 4.6c-7.4,0.6 -7.8,0.6 -9.3,-1.7 -0.9,-1.3 -1.9,-4.2 -2.3,-6.3 -0.6,-3.4 -0.2,-4.9 3.2,-11.3q6.9,-13 6.3,-2.6" transform="matrix(1 0 0 0.7 0 22)" fill="#000000" fill-opacity="1"/><path d="M77.5,38.1q-0.6,1 -0.3,1.4c0.7,0.7 4.8,-0.7 4.8,-1.6 0,-1.3 -3.7,-1.1 -4.5,0.2m2.2,5.5c-1,1.1 -0.8,5.2 0.2,5.9q1,0.3 2.1,-1.6c0.9,-1.7 0.9,-2.4 -0.2,-3.5q-1.4,-1.2 -2.1,-0.8m80.7,-28.1c-2.7,1.4 -6.3,3 -8,3.5s-4.4,2.4 -6,4.1c-2.6,2.7 -2.9,3.6 -2.7,8.7 0.8,16.9 1,15.7 -3,19.5 -2,1.9 -3.7,3.9 -3.7,4.5 0,1.3 3.9,5.2 5.2,5.2 0.4,0 0.8,1.1 0.8,2.4 0,2.6 1.6,3.6 6.3,3.6l3.2,0.1 -3.5,1.7q-5.7,2.7 -1.2,7.5c2.4,2.7 4.9,3.8 10.1,4.6 6.4,0.9 6.5,3.1 0.5,8.4 -5.5,4.8 -8.7,11.2 -11,21.7a46,46 0,0 1,-2.1 7.9c-0.2,0.3 -1.7,-1.1 -3.3,-3q-3,-3.3 -3,-7c0,-4.4 -3.7,-15.4 -5.7,-17 -2.1,-1.8 -4.7,0.1 -5.3,4l-0.5,3.1 -5.9,-4c-6.4,-4.3 -10.1,-4.9 -10.1,-1.5q0,2 -2.5,2.5c-2.5,0.5 -3.2,2.3 -3,7.5l0.1,4.8q0,4.6 13.2,11.3c3.8,2 4.7,2.9 4.7,5a71,71 0,0 0,8.9 21.8q5.9,8.3 14.7,7.3l4.4,-0.5v4.9c0,2.7 0.5,4.9 1,4.9s1,-2.1 1,-4.6v-4.6l4.1,0.7c2.3,0.4 6.8,0.7 10.2,0.8 4.3,0 6.5,0.5 7.8,1.8a50,50 0,0 0,22.1 4.9c8.5,0 12.6,-2.2 15.8,-8.6 2.3,-4.6 2.5,-5.8 2.4,-18.9a90,90 0,0 0,-5.5 -33.7c-0.9,-1.7 -0.6,-2.6 2.6,-5.8 6.2,-6.3 6.4,-13.9 0.6,-20.6 -2.4,-2.7 -3.1,-4.2 -2.6,-5.8 0.4,-1.1 0.9,-4.7 1.2,-7.9 0.5,-5.8 0.5,-5.8 -3.8,-9.9 -4,-3.9 -4.3,-4.5 -4.5,-9.9q-0.3,-10.3 -6.9,-14a23,23 0,0 1,-5.8 -5.8c-3.7,-5.6 -9.5,-8.1 -18.8,-8.1a23,23 0,0 0,-12.5 2.5M158.7,40c1.5,1.2 4,2.4 5.6,2.7 2.2,0.5 3.3,1.6 4.8,4.9 1.8,4.3 4.9,5.9 6.4,3.4 0.9,-1.4 4.8,-1.3 6.3,0.2 0.7,0.7 1.2,2.7 1.2,4.5 0,3.8 -3.7,8.3 -6.8,8.3q-2,-0.1 -2.6,3.1c-1.6,8.2 0.6,14.4 6.4,17.4l3.1,1.6 -2.8,2.3c-4.1,3.4 -6.8,4.6 -10.1,4.6 -3.7,0 -4.9,-1.5 -5,-6.4 -0.1,-2.1 -0.4,-4.1 -0.7,-4.4q-0.4,-0.6 0.6,-1.9 1,-1.1 0.8,-1.4l-6.1,-0.2c-4,-0.2 -6.5,-0.8 -8.5,-2.3 -3.2,-2.4 -4.2,-5.4 -1.9,-5.4 1.7,0 5.6,-3.4 5.6,-4.9 0,-0.6 -2.1,-1.1 -4.7,-1.3 -4.1,-0.3 -4.8,-0.6 -5.1,-2.6a6,6 0,0 0,-2.5 -3.4c-3.7,-1.9 -3.8,-3.2 -0.1,-6.9 2.7,-2.8 3.6,-4.8 4.4,-9.2 1,-6 1.4,-7.1 3.9,-10 1.4,-1.7 1.6,-1.6 3.3,1.7 1,1.9 3,4.4 4.5,5.6m34.5,47.2a30,30 0,0 1,15.3 14.1c6.8,14 8.4,44.8 2.7,53.5 -3.4,5.2 -12.4,6.5 -25.2,3.6 -3.9,-0.8 -7.2,-1.9 -7.4,-2.3s0.1,-2.5 0.9,-4.7a32,32 0,0 0,1.5 -8.3v-4.4l10,0.5c9.7,0.5 13.4,-0.5 6.7,-1.7l-3.3,-0.6 -1.2,-10.7c-1.3,-10.9 -1.8,-12.6 -3.1,-11.8 -0.4,0.3 -0.2,4.5 0.5,9.3 2.2,14.1 2.5,13.3 -5,13.3h-6.4l-5.1,-7q-7.9,-10.8 -9.6,-4.9a13,13 0,0 0,0 5.6l0.6,3.5 -3.3,-0.7c-1.8,-0.4 -3.5,-0.9 -3.8,-1.2s-0.4,-5.7 -0.4,-12q0.2,-11.6 -0.8,-10.5c-0.6,0.6 -1.1,5.8 -1.2,11.7l-0.1,10.6 -4.4,-0.3c-4,-0.3 -4.6,0 -6.2,2.7 -2.3,4 -1.5,8.9 2.3,13.7l2.9,3.8h-3.8q-8,0 -13.2,-9.3a74,74 0,0 1,-6.9 -17.2l3.7,-1.5c1.9,-0.8 4.9,-2.8 6.6,-4.6l3.3,-3.2 3.3,4.5 3.2,4.6 2.3,-10.1c2.7,-12.1 5.4,-18.6 9.6,-23q4.9,-5 4.8,-2c0,2.4 3.4,4.8 6.7,4.8 4.6,0 9.3,-2.1 12.9,-5.8 3.2,-3.4 4.8,-3.7 10.6,-2m-71.4,10.4c3.7,2.5 7.1,4.6 7.6,4.7s1,-1.6 1,-3.8c0.1,-2.2 0.6,-4.2 1.1,-4.3 1.9,-0.7 5.4,10 5.5,16.5 0,6.1 0,6.2 -4.2,9.2q-6.8,5 -6.8,1.7 -0.2,-1.3 -2.2,-2c-3.3,-0.8 -8.6,-5.6 -7,-6.2q3.6,-1.7 -3.4,-5.4c-2.5,-1.4 -5,-3.3 -5.5,-4.3q-2.2,-4 6.3,1.3c5.3,3.3 5.8,3.5 5.8,2.1 0,-0.5 -2.5,-2.4 -5.5,-4.1 -5.8,-3.3 -7.1,-4.5 -5.6,-5.4 0.5,-0.3 3.4,0.8 6.6,2.5s5.9,2.8 6.1,2.6c0.3,-0.2 -1.6,-2.1 -4.1,-4.1Q111,93.1 114,93c0.6,0 4.1,2 7.8,4.6m-9.4,12.9q1.7,1.4 0.9,1.5c-1.9,0 -4.3,-1.2 -4.3,-2.1q0,-2 3.4,0.6m61.1,22.1 l5.7,7.7 -0.6,5.6c-0.4,3.1 -1.1,6 -1.7,6.6 -1.4,1.4 -15.6,1.1 -20.4,-0.5 -2.2,-0.7 -4.9,-1.9 -6,-2.8 -2.2,-1.5 -1.9,-1.5 6,0.4q2.3,0.5 2.5,-0.4c0,-0.5 -2.2,-1.5 -4.9,-2.2 -5.4,-1.3 -10,-3.9 -6.9,-4 0.9,0 2.7,0.4 4,0.9 4.3,1.5 7.8,2.1 7.8,1.3 0,-0.5 -2.6,-1.6 -5.8,-2.5 -3.3,-0.9 -6.5,-2.3 -7.2,-3.2 -1.6,-2 -0.2,-2 6.4,0 5.6,1.7 7.6,1.9 7.6,0.7 0,-0.5 -2.4,-1.4 -5.2,-2.1q-9.5,-2.1 -7.3,-3.9c0.6,-0.6 3.9,-0.5 8.5,0.4 11.1,2 12.4,1.9 11.6,-0.9 -1.5,-4.9 -1.8,-8.7 -0.9,-8.7 0.6,0 3.6,3.4 6.8,7.6" transform="matrix(1 0 0 0.7 0 22)" fill="#000000" fill-opacity="1"/><path d="M155,42q0.1,0.9 1,1 1,-0.1 1,-1t-1,-1a1,1 0,0 0,-1 1m-3.3,4.7c-0.4,0.3 -0.7,1.7 -0.7,3 0,3.3 2.4,2.4 2.8,-1 0.3,-2.6 -0.7,-3.5 -2.1,-2" transform="matrix(1 0 0 0.7 0 22)" fill="#000000" fill-opacity="1"/></svg>